<svg height="512pt" viewBox="0 0 512 512" width="512pt" xmlns="http://www.w3.org/2000/svg"><path d="m389.394531 503.464844s93.863281-213.332032 34.132813-315.730469c-59.734375-102.402344-42.667969-179.199219-42.667969-179.199219h-249.71875s17.066406 76.796875-42.667969 179.199219c-59.730468 102.398437 34.132813 315.730469 34.132813 315.730469zm0 0" fill="#bfa885"/><path d="m365.328125 503.464844s76.929687-213.332032 27.972656-315.730469c-48.957031-102.402344-34.984375-179.199219-34.984375-179.199219h-204.648437s13.988281 76.796875-34.988281 179.199219c-48.972657 102.398437 27.972656 315.730469 27.972656 315.730469zm0 0" fill="#ffe0b2"/><path d="m273.066406 136.535156c0 9.425782-7.640625 17.066406-17.066406 17.066406s-17.066406-7.640624-17.066406-17.066406" fill="#bfa885"/><path d="m8.535156 55.464844v25.601562c0 2.355469 1.910156 4.265625 4.265625 4.265625h34.132813c2.355468 0 4.265625 1.910157 4.265625 4.269531v12.21875c0 1.65625.953125 3.164063 2.453125 3.867188 1.5.707031 3.273437.476562 4.546875-.582031l40.265625-33.5625c.972656-.808594 1.535156-2.011719 1.535156-3.277344s-.5625-2.464844-1.535156-3.277344l-40.265625-33.558593c-1.273438-1.0625-3.046875-1.289063-4.546875-.585938s-2.453125 2.214844-2.453125 3.871094v12.21875c0 2.355468-1.910157 4.265625-4.265625 4.265625h-34.132813c-2.355469 0-4.265625 1.910156-4.265625 4.265625zm0 0" fill="#e91e63"/><path d="m503.464844 55.464844v25.601562c0 2.355469-1.910156 4.265625-4.265625 4.265625h-34.132813c-2.355468 0-4.265625 1.910157-4.265625 4.269531v12.21875c0 1.65625-.953125 3.164063-2.453125 3.867188-1.5.707031-3.273437.476562-4.546875-.582031l-40.265625-33.5625c-.972656-.808594-1.535156-2.011719-1.535156-3.277344s.5625-2.464844 1.535156-3.277344l40.265625-33.558593c1.273438-1.0625 3.046875-1.289063 4.546875-.585938s2.453125 2.214844 2.453125 3.871094v12.21875c0 2.355468 1.910157 4.265625 4.265625 4.265625h34.132813c2.355469 0 4.265625 1.910156 4.265625 4.265625zm0 0" fill="#e91e63"/><path d="m443.136719 264.449219c-8.023438-.597657-95.234375-7.253907-135.9375 17.152343-11.007813 6.570313-19.796875 11.519532-26.625 15.101563-.253907.171875-.511719.257813-.765625.425781-1.707032.855469-3.242188 1.707032-4.695313 2.390625-12.023437 6.058594-26.203125 6.058594-38.226562 0-1.878907-.9375-4.011719-1.960937-6.230469-3.15625-6.828125-3.671875-15.273438-8.449219-25.855469-14.761719-40.703125-24.40625-127.832031-17.75-135.9375-17.066406.292969-26.804687 7.027344-53.144531 19.628907-76.800781 1.707031-2.988281 3.410156-5.890625 4.949218-8.789063l.425782.253907c17.578124.683593 34.644531 9.214843 50.859374 15.359375 18.429688 7 36.949219 15.445312 55.890626 21.078125 18.09375 4.589843 36.726562 6.6875 55.382812 6.230469 18.65625.457031 37.289062-1.640626 55.382812-6.230469 18.941407-5.632813 37.460938-14.078125 55.890626-21.078125 16.214843-6.144532 33.28125-14.675782 50.859374-15.359375l.425782-.253907c1.539062 2.898438 3.242187 5.800782 4.949218 8.789063 12.601563 23.625 19.335938 49.9375 19.628907 76.714844zm0 0" fill="#c52828"/><path d="m409.257812 263.167969c-31.144531-.085938-76.117187 2.816406-102.058593 18.433593-11.007813 6.570313-19.796875 11.519532-26.625 15.101563-.253907.171875-.511719.257813-.765625.425781-1.707032.855469-3.242188 1.707032-4.695313 2.390625-12.023437 6.058594-26.203125 6.058594-38.226562 0-1.878907-.9375-4.011719-1.960937-6.230469-3.15625-6.828125-3.671875-15.273438-8.449219-25.855469-14.761719-25.941406-15.617187-70.914062-18.519531-102.058593-18.433593.167968-25.964844 5.597656-51.625 15.957031-75.433594.425781-.941406.9375-1.878906 1.28125-2.816406 8.445312 2.984375 16.722656 6.570312 24.746093 9.640625 18.429688 7 36.949219 15.445312 55.890626 21.078125 18.09375 4.589843 36.726562 6.6875 55.382812 6.230469 18.65625.457031 37.289062-1.640626 55.382812-6.230469 18.941407-5.632813 37.460938-14.078125 55.890626-21.078125 8.023437-3.070313 16.300781-6.65625 24.746093-9.640625.34375.9375.855469 1.875 1.28125 2.816406 10.359375 23.808594 15.789063 49.46875 15.957031 75.433594zm0 0" fill="#f44335"/><path d="m365.3125 503.464844h-109.3125v-135.679688c5.789062-23.785156 13.230469-47.136718 22.273438-69.886718l1.535156-.769532c.253906-.167968.511718-.253906.765625-.425781 6.828125-3.582031 15.617187-8.53125 26.625-15.101563 25.941406-15.617187 70.914062-18.519531 102.058593-18.433593 4.351563 106.496093-43.945312 240.296875-43.945312 240.296875zm0 0" fill="#bea182"/><path d="m365.3125 503.464844h-86.785156c-18.347656-94.71875 12.117187-187.730469 24.148437-219.132813 1.109375-.683593 2.304688-1.367187 3.5-2.132812.339844-.171875.683594-.429688 1.023438-.597657 25.941406-15.617187 70.914062-18.519531 102.058593-18.433593 4.351563 106.496093-43.945312 240.296875-43.945312 240.296875zm0 0" fill="#fdd7ad"/><path d="m146.628906 503.464844h109.3125v-135.679688c-5.789062-23.785156-13.230468-47.136718-22.273437-69.886718l-1.535157-.769532c-.257812-.167968-.511718-.253906-.769531-.425781-6.824219-3.582031-15.625-8.53125-26.621093-15.101563-25.941407-15.617187-70.914063-18.519531-102.070313-18.433593-4.34375 106.496093 43.957031 240.296875 43.957031 240.296875zm0 0" fill="#bea182"/><path d="m146.628906 503.464844h86.785156c18.34375-94.71875-12.117187-187.730469-24.152343-219.132813-1.109375-.683593-2.304688-1.367187-3.496094-2.132812-.34375-.171875-.691406-.429688-1.023437-.597657-25.941407-15.617187-70.914063-18.519531-102.070313-18.433593-4.34375 106.496093 43.957031 240.296875 43.957031 240.296875zm0 0" fill="#fdd7ad"/><path d="m278.273438 297.898438c-9.042969 22.75-16.484376 46.101562-22.273438 69.886718-5.8125-23.75-13.253906-47.074218-22.273438-69.800781 1.109376.511719 2.136719 1.023437 3.160157 1.535156 12.023437 6.058594 26.203125 6.058594 38.226562 0 1.023438-.511719 2.050781-1.023437 3.160157-1.621093zm0 0" fill="#37474f"/><path d="m81.066406 183.464844c-61.183594 104.960937 29.867188 314.566406 33.722656 323.414062 1.359376 3.109375 4.425782 5.121094 7.816407 5.121094h266.789062c3.390625 0 6.457031-2.011719 7.816407-5.121094 3.898437-8.847656 94.90625-218.453125 33.722656-323.414062-57.171875-97.953125-41.898438-172.371094-41.746094-173.078125.5625-2.527344-.054688-5.171875-1.671875-7.191407-1.621094-2.019531-4.066406-3.195312-6.65625-3.195312h-249.71875c-2.585937 0-5.03125 1.171875-6.648437 3.183594-1.621094 2.011718-2.242188 4.652344-1.6875 7.175781.160156.734375 15.433593 75.152344-41.738282 173.105469zm47.199219 311.46875c-10.128906-24.507813-52.429687-132.4375-51.148437-222.4375 35.421874-2.210938 94.378906-.914063 123.304687 16.433594 8.125 4.847656 15.410156 9.003906 22.09375 12.671874.09375.246094.078125.511719.195313.761719 10.367187 23.367188 18.695312 47.585938 24.902343 72.386719-.0625.234375-.113281.476562-.148437.714844v119.46875zm127.734375-152.660156c-4.019531-12.648438-7.851562-23.109376-10.929688-30.917969 7.191407 1.621093 14.65625 1.621093 21.851563 0-3.078125 7.792969-6.910156 18.277343-10.921875 30.917969zm127.734375 152.660156h-119.199219v-119.46875c-.035156-.238282-.085937-.480469-.148437-.714844 6.203125-24.800781 14.53125-49.019531 24.894531-72.386719.117188-.25.101562-.503906.195312-.753906 6.382813-3.480469 13.75-7.710937 22.101563-12.6875 32.296875-19.378906 98.132813-17.851563 123.28125-16.453125 1.289063 89.984375-40.996094 197.949219-51.125 222.464844zm50.261719-239.609375c-30.292969-1.621094-95.835938-2.242188-131.171875 18.945312-10.289063 6.144531-19.105469 11.144531-26.457031 15l-.613282.335938-1.988281 1.023437c-.808594.417969-1.578125.851563-2.515625 1.269532-9.625 4.824218-20.960938 4.824218-30.585938 0l-1.421874-.707032c-1.425782-.707031-2.980469-1.476562-4.585938-2.339844-7.40625-3.984374-15.988281-8.882812-25.503906-14.554687-36.222656-21.710937-104.867188-20.371094-131.167969-18.917969 1.179687-22.191406 7.277344-43.835937 17.851563-63.378906.746093-1.269531 1.367187-2.492188 2.085937-3.753906 11.664063 1.984375 23.027344 5.445312 33.816406 10.308594 3.34375 1.355468 6.664063 2.695312 9.949219 3.941406 5.871094 2.234375 11.742188 4.609375 17.636719 6.988281 12.589843 5.121094 25.601562 10.359375 38.835937 14.269531 18.855469 4.863282 38.292969 7.097656 57.761719 6.644532h.15625c19.460937.464843 38.898437-1.761719 57.753906-6.613282 13.242188-3.90625 26.253907-9.171875 38.84375-14.265625 5.894531-2.382812 11.765625-4.753906 17.636719-6.988281 3.285156-1.246094 6.605469-2.5625 9.957031-3.945312 10.78125-4.859376 22.140625-8.324219 33.800781-10.304688.71875 1.261719 1.339844 2.480469 2.082032 3.753906 10.554687 19.515625 16.652344 41.132813 17.84375 63.289063zm-292.972656-238.257813h229.953124c-2.421874 22.84375-3.234374 81.066406 34.449219 155.179688-10.824219 2.53125-21.390625 6.054687-31.570312 10.519531-3.234375 1.308594-6.445313 2.5625-9.609375 3.808594-5.972656 2.269531-11.949219 4.699219-17.988282 7.125-12.210937 4.941406-24.832031 10.042969-37.28125 13.71875-17.308593 4.367187-35.132812 6.359375-52.976562 5.914062-17.851562.445313-35.683594-1.542969-53-5.914062-12.441406-3.675781-25.0625-8.777344-37.273438-13.71875-5.972656-2.425781-12-4.855469-17.988281-7.125-3.167969-1.203125-6.375-2.5-9.609375-3.808594-10.179687-4.464844-20.75-7.988281-31.574218-10.527344 37.703124-74.105469 36.890624-132.328125 34.46875-155.171875zm0 0"/><path d="m256 162.132812c14.136719 0 25.601562-11.460937 25.601562-25.597656 0-4.714844-3.820312-8.535156-8.535156-8.535156-4.710937 0-8.53125 3.820312-8.53125 8.535156 0 4.710938-3.824218 8.53125-8.535156 8.53125s-8.535156-3.820312-8.535156-8.53125c0-4.714844-3.820313-8.535156-8.53125-8.535156-4.714844 0-8.535156 3.820312-8.535156 8.535156 0 14.136719 11.464843 25.597656 25.601562 25.597656zm0 0"/><path d="m8.535156 93.867188h34.132813v17.066406c0 3.308594 1.914062 6.320312 4.914062 7.722656 2.996094 1.40625 6.535157.949219 9.078125-1.167969l51.203125-42.667969c1.941407-1.621093 3.066407-4.023437 3.066407-6.554687s-1.125-4.929687-3.066407-6.550781l-51.203125-42.667969c-2.542968-2.117187-6.082031-2.574219-9.078125-1.171875-3 1.402344-4.914062 4.414062-4.914062 7.726562v17.066407h-34.132813c-4.714844 0-8.535156 3.820312-8.535156 8.53125v34.132812c0 4.714844 3.820312 8.535157 8.535156 8.535157zm8.53125-34.132813h34.132813c4.714843 0 8.535156-3.820313 8.535156-8.535156v-7.378907l29.335937 24.445313-29.335937 24.449219v-7.382813c0-4.710937-3.820313-8.53125-8.535156-8.53125h-34.132813zm0 0"/><path d="m503.464844 42.667969h-34.132813v-17.066407c.003907-3.316406-1.914062-6.328124-4.914062-7.734374s-6.542969-.945313-9.085938 1.179687l-51.203125 42.667969c-1.941406 1.621094-3.066406 4.019531-3.066406 6.550781s1.125 4.933594 3.066406 6.554687l51.203125 42.667969c2.542969 2.121094 6.085938 2.582031 9.085938 1.179688 3-1.40625 4.917969-4.421875 4.914062-7.734375v-17.066406h34.132813c4.714844 0 8.535156-3.820313 8.535156-8.535157v-34.132812c0-4.710938-3.820312-8.53125-8.535156-8.53125zm-8.53125 34.132812h-34.132813c-4.714843 0-8.535156 3.820313-8.535156 8.53125v7.382813l-29.328125-24.449219 29.328125-24.445313v7.378907c0 4.714843 3.820313 8.535156 8.535156 8.535156h34.132813zm0 0"/></svg>