<svg height="512pt" viewBox="0 -20 512 511" width="512pt" xmlns="http://www.w3.org/2000/svg"><g fill-rule="evenodd"><path d="m10 248.964844c0 155.769531 88.332031 213.066406 88.332031 213.066406 267.972657 8.949219 325.449219-175.285156 325.449219-175.285156 45.894531-18.800782 78.21875-63.914063 78.21875-116.578125 0-69.546875-56.378906-125.929688-125.929688-125.929688-69.546874 0-125.929687 56.382813-125.929687 125.929688-49.199219 29.410156-73.296875 66.527343-84.960937 98.195312-60.285157-36.097656-57.640626-143.5625-57.640626-143.5625 56.589844 11.558594 76.277344-10.132812 84.488282-57.863281 9.550781-55.503906-28.050782-65.648438-92.507813-49.535156-64.457031 16.113281-89.519531 75.792968-89.519531 231.5625zm0 0" fill="#ffd4bd"/><path d="m418.703125 41.070312c-5.242187-1.730468-10.898437 1.117188-12.628906 6.363282-1.730469 5.242187 1.117187 10.898437 6.359375 12.628906 47.589844 15.707031 79.566406 59.957031 79.566406 110.105469 0 47.273437-28.265625 89.402343-72.011719 107.324219-.003906.003906-.011719.007812-.019531.011718s-.015625.003906-.023438.007813c-13.90625 5.777343-28.257812 8.585937-43.875 8.585937-5.519531 0-10 4.476563-10 10 0 5.523438 4.480469 10 10 10 10.363282 0 20.269532-1.0625 29.886719-3.222656-8.503906 16.761719-24.371093 42.339844-51.253906 67.582031-41.976563 39.410157-119.859375 85.40625-253.023437 81.671875-5.851563-4.414062-22.914063-18.554687-39.777344-44.664062-19.117188-29.59375-41.902344-81.117188-41.902344-158.5 0-77.726563 6.320312-129.992188 19.894531-164.492188 12.632813-32.105468 31.769531-49.800781 62.050781-57.371094 47.023438-11.753906 66.109376-5.671874 73.835938 1.5 7.265625 6.742188 9.414062 19.066407 6.394531 36.640626-4.136719 24.027343-11.027343 38.613281-21.6875 45.898437-10.808593 7.386719-27.464843 8.652344-50.917969 3.867187-9.160156-1.992187-20.507812-5.070312-29.632812-8.042968-5.25-1.714844-10.894531 1.160156-12.605469 6.410156-1.710937 5.25 1.160157 10.894531 6.410157 12.605469 7.277343 2.371093 15.878906 4.804687 23.847656 6.769531.667968 25.675781 6.789062 103.953125 55.546875 139.59375-12.328125 36.957031-8.15625 64.125-7.960938 65.335938.792969 4.910156 5.039063 8.402343 9.859375 8.402343.53125 0 1.066406-.039062 1.609375-.128906 5.453125-.882813 9.15625-6.015625 8.273438-11.46875-.042969-.265625-4.105469-26.761719 9.601562-62.546875.007813-.019531.011719-.042969.019531-.0625.007813-.023438.015626-.039062.023438-.058594 12.324219-33.457031 34.738281-61.664062 66.734375-84.03125 2.554687 19.65625 9.347656 38.515625 20.050781 55.320313 1.90625 2.992187 5.140625 4.628906 8.445313 4.628906 1.835937 0 3.695312-.507813 5.363281-1.566406 4.65625-2.96875 6.027344-9.148438 3.058594-13.808594-11.824219-18.5625-18.074219-40.066406-18.074219-62.191406 0-.007813 0-.011719 0-.015625.007813-50.140625 31.976563-94.382813 79.5625-110.089844 5.242187-1.730469 8.09375-7.386719 6.359375-12.632812-1.730469-5.242188-7.390625-8.089844-12.628906-6.359376-54 17.824219-90.851563 66.984376-93.175782 123.421876-36.890624 23.125-63.585937 52.792968-79.554687 88.378906-34.988281-29.761719-41.664063-90.664063-42.902344-116.183594 23.167969 3.105469 40.511719.164062 53.96875-9.03125 15.640625-10.691406 24.929688-28.894531 30.113281-59.027344 4.242188-24.65625.039063-43.054687-12.5-54.6875-16.742187-15.539062-46.929687-17.582031-92.289062-6.242187-36.691406 9.171875-60.78125 31.238281-75.8125 69.449219-14.519531 36.910156-21.28125 91.503906-21.28125 171.816406 0 82.925781 24.902344 138.445312 45.792969 170.414062 22.976562 35.160156 46.121093 50.410156 47.097656 51.039063 1.523437.992187 3.289063 1.546875 5.105469 1.605469 6.367187.214843 12.667968.320312 18.910156.320312 54.949219-.003906 104.9375-8.242188 148.8125-24.554688 39.363281-14.632812 73.90625-35.746093 102.671875-62.753906 41.070313-38.558594 58.382813-77.75 63.351563-90.824218 48.90625-21.929688 80.257812-70.132813 80.257812-124.042969 0-58.796875-37.492188-110.675781-93.296875-129.097657zm0 0"/><path d="m376.070312 54.238281c5.507813 0 10-4.492187 10-10 0-5.507812-4.492187-10-10-10-5.507812 0-10 4.492188-10 10 0 5.507813 4.492188 10 10 10zm0 0"/></g></svg>